<svg width="800" height="800" viewBox="0 0 800 800" xmlns="http://www.w3.org/2000/svg">
  <defs>
    <pattern id="grid" width="50" height="50" patternUnits="userSpaceOnUse">
      <circle cx="2" cy="2" r="1" fill="#7b68ee" opacity="0.3" />
    </pattern>
    <linearGradient id="techGradient" x1="0%" y1="0%" x2="100%" y2="100%">
      <stop offset="0%" stop-color="#7b68ee" stop-opacity="0.2" />
      <stop offset="100%" stop-color="#9370db" stop-opacity="0.2" />
    </linearGradient>
  </defs>
  
  <!-- Background grid pattern -->
  <rect width="100%" height="100%" fill="url(#grid)" />
  
  <!-- Tech circuit lines -->
  <g stroke="#7b68ee" stroke-width="1" fill="none" opacity="0.3">
    <path d="M100,100 L300,100 L300,300 L500,300 L500,500 L700,500" />
    <path d="M200,200 L400,200 L400,400 L600,400 L600,600" />
    <path d="M150,700 L150,500 L350,500 L350,300 L550,300 L550,100" />
    <path d="M250,600 L250,400 L450,400 L450,200 L650,200" />
  </g>
  
  <!-- Connection nodes -->
  <g fill="#7b68ee" opacity="0.5">
    <circle cx="100" cy="100" r="4" />
    <circle cx="300" cy="100" r="4" />
    <circle cx="300" cy="300" r="4" />
    <circle cx="500" cy="300" r="4" />
    <circle cx="500" cy="500" r="4" />
    <circle cx="700" cy="500" r="4" />
    
    <circle cx="200" cy="200" r="4" />
    <circle cx="400" cy="200" r="4" />
    <circle cx="400" cy="400" r="4" />
    <circle cx="600" cy="400" r="4" />
    <circle cx="600" cy="600" r="4" />
    
    <circle cx="150" cy="700" r="4" />
    <circle cx="150" cy="500" r="4" />
    <circle cx="350" cy="500" r="4" />
    <circle cx="350" cy="300" r="4" />
    <circle cx="550" cy="300" r="4" />
    <circle cx="550" cy="100" r="4" />
    
    <circle cx="250" cy="600" r="4" />
    <circle cx="250" cy="400" r="4" />
    <circle cx="450" cy="400" r="4" />
    <circle cx="450" cy="200" r="4" />
    <circle cx="650" cy="200" r="4" />
  </g>
  
  <!-- Decorative tech elements -->
  <g opacity="0.2">
    <rect x="150" y="150" width="100" height="100" rx="10" fill="url(#techGradient)" />
    <rect x="550" y="350" width="100" height="100" rx="10" fill="url(#techGradient)" />
    <rect x="350" y="550" width="100" height="100" rx="10" fill="url(#techGradient)" />
    <circle cx="400" cy="300" r="50" fill="url(#techGradient)" />
  </g>
</svg>